<svg width="30" height="30" viewBox="0 0 30 30" fill="none" xmlns="http://www.w3.org/2000/svg">
<g id="notification-icon">
<g id="Vector">
<path id="Vector_2" d="M7.84746 14.6112C7.84746 14.4577 7.83929 14.3144 7.83929 14.1609" stroke="#222222" stroke-width="1.5" stroke-linecap="round" stroke-linejoin="round"/>
<path id="Vector_3" d="M12.9183 23.6056C12.9183 24.9153 13.8425 25.9795 14.9821 26" stroke="#222222" stroke-width="1.5" stroke-linecap="round" stroke-linejoin="round"/>
<path id="Vector_4" d="M6.72682 23.6056H6" stroke="#222222" stroke-width="1.5" stroke-linecap="round" stroke-linejoin="round"/>
<path id="Vector_5" d="M14.9551 4V5.97489" stroke="#222222" stroke-width="1.5" stroke-linecap="round" stroke-linejoin="round"/>
<path id="Vector_6" d="M14.9822 23.6056H6.72693C7.47169 21.6717 7.97419 20.1163 7.84856 14.6112C7.84856 14.4577 7.84856 14.3042 7.83959 14.1507C7.83959 9.64839 11.025 6.00559 14.9552 5.96466H14.9822" stroke="#222222" stroke-width="1.5" stroke-linecap="round" stroke-linejoin="round"/>
<path id="Vector_7" d="M22.1598 14.1508C22.1598 14.3042 22.1598 14.4577 22.1516 14.601" stroke="#222222" stroke-width="1.5" stroke-linecap="round" stroke-linejoin="round"/>
<path id="Vector_8" d="M15.018 26C16.1666 25.9795 17.0818 24.9153 17.0818 23.6056" stroke="#222222" stroke-width="1.5" stroke-linecap="round" stroke-linejoin="round"/>
<path id="Vector_9" d="M24 23.6056H23.2732" stroke="#222222" stroke-width="1.5" stroke-linecap="round" stroke-linejoin="round"/>
<path id="Vector_10" d="M15.018 5.97491H15.0449C18.9841 6.00561 22.1606 9.65865 22.1606 14.161C22.1606 14.3145 22.1606 14.468 22.1516 14.6112C22.026 20.1163 22.5285 21.6819 23.2732 23.6057H15.018" stroke="#222222" stroke-width="1.5" stroke-linecap="round" stroke-linejoin="round"/>
</g>
</g>
</svg>
