<svg width="266" height="219" viewBox="0 0 266 219" fill="none" xmlns="http://www.w3.org/2000/svg">
<g clip-path="url(#clip0_481_6211)">
<path d="M37.7587 143.833C37.7587 143.833 46.6687 90.1885 76.3391 88.1201C72.7751 109.816 59.0536 134.166 44.0912 144.852C29.1287 155.537 37.7587 143.833 37.7587 143.833Z" fill="#8FEAEF"/>
<path d="M39.5216 144.852C39.4797 144.862 39.4362 144.862 39.3943 144.852C39.324 144.818 39.2696 144.758 39.2423 144.684C39.2151 144.611 39.2171 144.53 39.2479 144.458C39.4452 144.031 59.1746 101.365 72.1514 91.3411C72.1822 91.3174 72.2174 91.3001 72.255 91.2901C72.2925 91.2801 72.3317 91.2777 72.3702 91.283C72.4087 91.2884 72.4458 91.3013 72.4793 91.3211C72.5127 91.3409 72.5419 91.3672 72.5651 91.3984C72.5891 91.4288 72.6069 91.4637 72.6174 91.501C72.6279 91.5384 72.6308 91.5774 72.6261 91.6159C72.6214 91.6544 72.609 91.6916 72.5898 91.7252C72.5706 91.7589 72.5449 91.7884 72.5141 91.8121C59.6519 101.747 39.9862 144.279 39.7889 144.706C39.7615 144.752 39.7223 144.79 39.6753 144.816C39.6282 144.841 39.5752 144.854 39.5216 144.852Z" fill="#D0FCFC"/>
<path d="M64.2787 100.728C64.2005 100.723 64.1273 100.688 64.075 100.63C64.0226 100.571 63.9952 100.495 63.9987 100.416L64.336 93.5429C64.3368 93.5033 64.3456 93.4643 64.3618 93.4282C64.3781 93.3922 64.4015 93.3598 64.4307 93.333C64.4598 93.3062 64.4941 93.2856 64.5314 93.2725C64.5688 93.2593 64.6084 93.2539 64.6479 93.2565C64.7255 93.263 64.7977 93.2988 64.8498 93.3568C64.9018 93.4148 64.9298 93.4905 64.9279 93.5683L64.5906 100.448C64.589 100.487 64.5796 100.525 64.5629 100.561C64.5463 100.596 64.5227 100.628 64.4937 100.654C64.4646 100.68 64.4306 100.7 64.3937 100.713C64.3568 100.726 64.3177 100.731 64.2787 100.728Z" fill="#D0FCFC"/>
<path d="M55.8078 113.724C55.7364 113.725 55.6672 113.699 55.6132 113.652C55.5593 113.605 55.5244 113.54 55.5151 113.47L54.2422 103.84C54.2359 103.801 54.2376 103.762 54.2471 103.723C54.2566 103.685 54.2738 103.649 54.2976 103.617C54.3214 103.586 54.3513 103.559 54.3855 103.54C54.4197 103.52 54.4576 103.508 54.4968 103.503C54.5743 103.494 54.6522 103.515 54.714 103.563C54.7759 103.611 54.8167 103.68 54.8277 103.758L56.1006 113.387C56.1098 113.465 56.0885 113.544 56.041 113.607C55.9936 113.669 55.9238 113.711 55.846 113.724H55.8078Z" fill="#D0FCFC"/>
<path d="M48.9535 125.968C48.882 125.969 48.8128 125.944 48.7589 125.897C48.705 125.85 48.67 125.785 48.6607 125.714L47.2415 115.595C47.2323 115.516 47.2536 115.438 47.301 115.375C47.3485 115.312 47.4183 115.27 47.4961 115.257C47.574 115.25 47.6519 115.272 47.7144 115.319C47.7769 115.366 47.8194 115.435 47.8334 115.512L49.2526 125.631C49.2618 125.709 49.2405 125.788 49.193 125.851C49.1456 125.914 49.0758 125.956 48.998 125.968H48.9535Z" fill="#D0FCFC"/>
<path d="M43.9766 135.688C43.9082 135.688 43.8419 135.664 43.7886 135.622C43.7354 135.579 43.6984 135.519 43.6838 135.452L42.411 129.272C42.4026 129.234 42.4019 129.195 42.409 129.157C42.416 129.118 42.4306 129.082 42.452 129.049C42.4733 129.017 42.5009 128.989 42.5332 128.967C42.5655 128.945 42.6019 128.93 42.6401 128.922C42.7177 128.907 42.7981 128.924 42.8637 128.968C42.9293 129.012 42.9747 129.08 42.9901 129.158L44.263 135.331C44.2779 135.409 44.2616 135.489 44.2175 135.555C44.1733 135.62 44.105 135.666 44.0275 135.681L43.9766 135.688Z" fill="#D0FCFC"/>
<path d="M45.6249 132.366C45.5583 132.366 45.4935 132.343 45.4414 132.301C45.3893 132.26 45.3531 132.202 45.3386 132.136C45.3214 132.06 45.3351 131.979 45.3768 131.912C45.4185 131.846 45.4848 131.798 45.5613 131.78L56.9216 129.171C56.9596 129.161 56.9992 129.16 57.0379 129.166C57.0766 129.172 57.1137 129.186 57.1469 129.207C57.1802 129.227 57.2089 129.255 57.2314 129.287C57.2539 129.319 57.2698 129.355 57.278 129.393C57.2952 129.47 57.2815 129.551 57.2398 129.617C57.1981 129.684 57.1318 129.732 57.0552 129.75L45.695 132.359L45.6249 132.366Z" fill="#D0FCFC"/>
<path d="M52.5684 119.357C52.4982 119.356 52.4305 119.331 52.377 119.286C52.3235 119.24 52.2876 119.178 52.2756 119.109C52.2683 119.07 52.2689 119.03 52.2771 118.992C52.2854 118.954 52.3013 118.918 52.3239 118.885C52.3464 118.853 52.3752 118.826 52.4084 118.806C52.4417 118.785 52.4788 118.771 52.5175 118.765L64.8579 116.55C64.8964 116.543 64.936 116.543 64.9743 116.552C65.0126 116.56 65.0488 116.576 65.0809 116.598C65.1129 116.621 65.1401 116.65 65.1609 116.683C65.1816 116.716 65.1954 116.753 65.2016 116.792C65.2145 116.869 65.1964 116.949 65.1511 117.013C65.1059 117.078 65.0371 117.122 64.9597 117.136L52.6193 119.35L52.5684 119.357Z" fill="#D0FCFC"/>
<path d="M59.6328 107.512C59.5596 107.51 59.4898 107.481 59.4367 107.43C59.3836 107.38 59.3507 107.312 59.3445 107.239C59.3382 107.166 59.3589 107.093 59.4026 107.034C59.4464 106.976 59.5102 106.935 59.5819 106.92L69.3065 105.068C69.3462 105.057 69.3877 105.055 69.4284 105.061C69.4691 105.067 69.5082 105.081 69.5432 105.103C69.5781 105.124 69.6082 105.153 69.6316 105.187C69.655 105.221 69.6711 105.259 69.679 105.299C69.6869 105.34 69.6864 105.381 69.6775 105.421C69.6686 105.462 69.6515 105.499 69.6273 105.533C69.6031 105.566 69.5723 105.594 69.5368 105.615C69.5013 105.636 69.4619 105.649 69.4211 105.654L59.6901 107.506L59.6328 107.512Z" fill="#D0FCFC"/>
<path d="M39.1525 145.005C39.1525 145.005 30.2679 91.3599 0.572021 89.3105C4.13603 111.006 17.8575 135.356 32.82 146.042C47.7825 156.728 39.1525 145.005 39.1525 145.005Z" fill="#6DDCE8"/>
<path d="M37.3895 146.023C37.4314 146.033 37.4749 146.033 37.5168 146.023C37.5872 145.989 37.6416 145.928 37.6688 145.855C37.696 145.782 37.694 145.701 37.6632 145.629C37.4659 145.202 17.7366 102.536 4.75974 92.512C4.72894 92.4883 4.69373 92.471 4.65616 92.461C4.61858 92.451 4.5794 92.4486 4.54089 92.4539C4.50238 92.4593 4.46532 92.4722 4.43187 92.492C4.39842 92.5118 4.36924 92.5381 4.34606 92.5693C4.32199 92.5997 4.3042 92.6346 4.29372 92.6719C4.28324 92.7093 4.28029 92.7483 4.28502 92.7868C4.28976 92.8253 4.30209 92.8625 4.32131 92.8961C4.34053 92.9298 4.36625 92.9593 4.39697 92.983C17.2465 102.892 36.9249 145.425 37.1222 145.851C37.1462 145.902 37.1839 145.945 37.2312 145.976C37.2785 146.006 37.3333 146.022 37.3895 146.023Z" fill="#8FEAEF"/>
<path d="M12.6324 101.899C12.7106 101.894 12.7838 101.859 12.8361 101.8C12.8885 101.742 12.9159 101.666 12.9124 101.587L12.5751 94.7138C12.5743 94.6742 12.5655 94.6352 12.5493 94.5991C12.533 94.5631 12.5096 94.5307 12.4804 94.5039C12.4513 94.4771 12.417 94.4565 12.3797 94.4434C12.3423 94.4302 12.3027 94.4248 12.2633 94.4274C12.1856 94.4339 12.1134 94.4698 12.0613 94.5277C12.0093 94.5857 11.9813 94.6614 11.9832 94.7392L12.3205 101.619C12.3221 101.658 12.3315 101.696 12.3482 101.732C12.3648 101.767 12.3884 101.799 12.4174 101.825C12.4465 101.851 12.4805 101.871 12.5174 101.884C12.5543 101.896 12.5934 101.902 12.6324 101.899Z" fill="#8FEAEF"/>
<path d="M21.1033 114.895C21.1747 114.896 21.244 114.87 21.2979 114.823C21.3518 114.776 21.3867 114.711 21.396 114.64L22.6689 105.011C22.6752 104.972 22.6735 104.932 22.664 104.894C22.6545 104.856 22.6373 104.82 22.6135 104.788C22.5898 104.757 22.5599 104.73 22.5256 104.711C22.4914 104.691 22.4535 104.679 22.4143 104.674C22.3369 104.665 22.2589 104.686 22.1971 104.734C22.1353 104.781 22.0945 104.851 22.0834 104.928L20.8105 114.558C20.8013 114.636 20.8226 114.715 20.8701 114.777C20.9175 114.84 20.9874 114.882 21.0651 114.895H21.1033Z" fill="#8FEAEF"/>
<path d="M27.9576 127.14C28.0291 127.141 28.0983 127.115 28.1522 127.069C28.2062 127.022 28.2411 126.957 28.2504 126.886L29.6696 116.767C29.6788 116.688 29.6575 116.61 29.6101 116.547C29.5627 116.484 29.4928 116.442 29.4151 116.429C29.3372 116.422 29.2592 116.444 29.1967 116.491C29.1342 116.538 29.0918 116.607 29.0778 116.684L27.6585 126.803C27.6493 126.881 27.6706 126.96 27.7181 127.023C27.7655 127.086 27.8354 127.128 27.9131 127.14H27.9576Z" fill="#8FEAEF"/>
<path d="M32.96 136.859C33.0283 136.859 33.0947 136.835 33.1479 136.793C33.2012 136.75 33.2382 136.69 33.2527 136.623L34.5256 130.443C34.534 130.405 34.5346 130.366 34.5276 130.328C34.5206 130.289 34.506 130.253 34.4846 130.22C34.4633 130.188 34.4356 130.16 34.4033 130.138C34.371 130.116 34.3347 130.101 34.2965 130.093C34.2189 130.078 34.1385 130.095 34.0729 130.139C34.0073 130.183 33.9618 130.251 33.9464 130.329L32.6736 136.502C32.6586 136.58 32.675 136.66 32.7191 136.726C32.7632 136.791 32.8315 136.837 32.9091 136.852L32.96 136.859Z" fill="#8FEAEF"/>
<path d="M31.2862 133.536C31.3529 133.537 31.4176 133.514 31.4697 133.472C31.5218 133.431 31.5581 133.372 31.5726 133.307C31.5898 133.231 31.576 133.15 31.5343 133.083C31.4926 133.017 31.4263 132.969 31.3498 132.951L19.9895 130.342C19.9515 130.332 19.9119 130.33 19.8732 130.337C19.8345 130.343 19.7974 130.357 19.7642 130.378C19.731 130.398 19.7022 130.426 19.6797 130.458C19.6572 130.49 19.6413 130.526 19.6331 130.564C19.6159 130.641 19.6297 130.721 19.6714 130.788C19.713 130.855 19.7793 130.903 19.8559 130.921L31.248 133.53L31.2862 133.536Z" fill="#8FEAEF"/>
<path d="M24.3427 120.528C24.4129 120.527 24.4806 120.502 24.5341 120.457C24.5877 120.411 24.6235 120.349 24.6355 120.279C24.6428 120.241 24.6423 120.201 24.634 120.163C24.6257 120.125 24.6098 120.088 24.5872 120.056C24.5647 120.024 24.5359 119.997 24.5027 119.976C24.4694 119.956 24.4323 119.942 24.3936 119.936L12.0532 117.721C12.0147 117.714 11.9751 117.714 11.9368 117.722C11.8985 117.731 11.8623 117.747 11.8302 117.769C11.7982 117.792 11.771 117.82 11.7503 117.854C11.7295 117.887 11.7157 117.924 11.7096 117.963C11.6966 118.04 11.7147 118.12 11.76 118.184C11.8052 118.249 11.874 118.292 11.9514 118.306L24.2918 120.496L24.3427 120.528Z" fill="#8FEAEF"/>
<path d="M17.2783 108.684C17.3515 108.681 17.4213 108.652 17.4744 108.602C17.5276 108.551 17.5604 108.483 17.5666 108.41C17.5729 108.337 17.5522 108.265 17.5085 108.206C17.4647 108.147 17.4009 108.107 17.3292 108.092L7.60458 106.24C7.52696 106.225 7.44657 106.241 7.38098 106.285C7.31539 106.329 7.26994 106.398 7.25455 106.475C7.24142 106.552 7.25866 106.631 7.30262 106.695C7.34658 106.759 7.4138 106.804 7.49002 106.819L17.2465 108.677L17.2783 108.684Z" fill="#8FEAEF"/>
<path d="M37.4023 140.314C37.4023 140.314 16.4001 90.1699 40.419 72.6172C48.9408 92.8748 50.2836 120.795 43.302 137.813C36.3203 154.831 37.4023 140.314 37.4023 140.314Z" fill="#5ACADE"/>
<path d="M39.4325 140.225C39.3985 140.248 39.3589 140.261 39.3179 140.263C39.2789 140.269 39.2391 140.268 39.2008 140.258C39.1625 140.249 39.1265 140.231 39.095 140.208C39.0635 140.184 39.0371 140.154 39.0174 140.12C38.9978 140.086 38.9853 140.048 38.9806 140.008C38.9233 139.544 32.9218 92.9126 38.5669 77.5301C38.5955 77.457 38.6511 77.3978 38.7222 77.3646C38.7933 77.3314 38.8744 77.3269 38.9488 77.3519C39.0229 77.3791 39.0832 77.4346 39.1165 77.5061C39.1499 77.5776 39.1537 77.6594 39.127 77.7337C33.5264 93.0081 39.5089 139.468 39.5725 139.932C39.5783 139.989 39.5683 140.046 39.5436 140.098C39.5189 140.15 39.4804 140.194 39.4325 140.225Z" fill="#96EAD2"/>
<path d="M36.9122 89.7117C36.878 89.7309 36.8402 89.7432 36.8012 89.7479C36.7622 89.7525 36.7226 89.7495 36.6848 89.7388C36.647 89.7282 36.6116 89.7102 36.5808 89.6859C36.5499 89.6616 36.5241 89.6314 36.5049 89.5972L33.1191 83.5829C33.0981 83.5496 33.0844 83.5122 33.0789 83.4733C33.0733 83.4343 33.076 83.3947 33.0869 83.3568C33.0977 83.319 33.1163 83.2839 33.1416 83.2537C33.1669 83.2236 33.1983 83.1991 33.2336 83.1819C33.2672 83.1619 33.3045 83.149 33.3432 83.144C33.382 83.139 33.4213 83.1419 33.4589 83.1526C33.4964 83.1633 33.5314 83.1816 33.5616 83.2064C33.5918 83.2311 33.6167 83.2618 33.6346 83.2965L37.014 89.3108C37.0504 89.3782 37.0602 89.4568 37.0413 89.5311C37.0225 89.6054 36.9764 89.6698 36.9122 89.7117Z" fill="#96EAD2"/>
<path d="M36.6576 105.221C36.5972 105.259 36.525 105.273 36.4547 105.262C36.3844 105.25 36.3208 105.213 36.2758 105.158L30.0515 97.6988C30.0026 97.6373 29.9794 97.5593 29.9865 97.4811C29.9936 97.4029 30.0305 97.3304 30.0897 97.2787C30.1505 97.2283 30.2289 97.204 30.3076 97.2112C30.3863 97.2183 30.4589 97.2564 30.5097 97.3169L36.7276 104.776C36.7534 104.806 36.7729 104.84 36.785 104.878C36.7971 104.915 36.8015 104.955 36.7979 104.994C36.7943 105.033 36.7829 105.071 36.7643 105.106C36.7456 105.141 36.7202 105.171 36.6895 105.196L36.6576 105.221Z" fill="#96EAD2"/>
<path d="M37.3768 119.223C37.315 119.26 37.2421 119.274 37.1711 119.262C37.1001 119.25 37.0354 119.214 36.9886 119.159L30.4015 111.363C30.3728 111.334 30.3505 111.298 30.336 111.26C30.3215 111.221 30.3151 111.18 30.3172 111.139C30.3194 111.098 30.33 111.058 30.3485 111.021C30.3669 110.984 30.3928 110.951 30.4245 110.925C30.4561 110.898 30.4929 110.879 30.5325 110.867C30.5721 110.856 30.6136 110.853 30.6545 110.858C30.6953 110.863 30.7347 110.877 30.77 110.898C30.8053 110.919 30.8359 110.948 30.8598 110.981L37.4468 118.79C37.4972 118.851 37.5215 118.929 37.5144 119.008C37.5072 119.087 37.4692 119.16 37.4086 119.21L37.3768 119.223Z" fill="#96EAD2"/>
<path d="M38.306 130.125C38.2481 130.161 38.1796 130.175 38.1123 130.166C38.0449 130.157 37.9829 130.124 37.9369 130.074L33.5773 125.524C33.5492 125.496 33.5269 125.464 33.5116 125.428C33.4964 125.392 33.4885 125.353 33.4885 125.314C33.4885 125.275 33.4964 125.236 33.5116 125.2C33.5269 125.164 33.5492 125.131 33.5773 125.104C33.6333 125.049 33.7087 125.018 33.7873 125.018C33.8659 125.018 33.9414 125.049 33.9974 125.104L38.3506 129.661C38.4057 129.717 38.4367 129.792 38.4367 129.871C38.4367 129.949 38.4057 130.025 38.3506 130.081L38.306 130.125Z" fill="#96EAD2"/>
<path d="M37.956 126.421C37.8997 126.455 37.8337 126.47 37.7681 126.463C37.7025 126.457 37.641 126.428 37.5932 126.383C37.5643 126.356 37.5412 126.323 37.5254 126.287C37.5097 126.251 37.5015 126.212 37.5015 126.173C37.5015 126.133 37.5097 126.094 37.5254 126.058C37.5412 126.022 37.5643 125.989 37.5932 125.963L45.8222 117.689C45.8798 117.644 45.9519 117.621 46.025 117.626C46.098 117.63 46.167 117.661 46.2187 117.713C46.2705 117.764 46.3015 117.833 46.3058 117.906C46.3101 117.979 46.2875 118.052 46.2423 118.109L38.0132 126.383L37.956 126.421Z" fill="#96EAD2"/>
<path d="M36.9122 111.713C36.8494 111.747 36.7768 111.756 36.7074 111.741C36.638 111.726 36.5764 111.686 36.5335 111.629C36.4906 111.573 36.4693 111.503 36.4734 111.432C36.4775 111.361 36.5067 111.294 36.5558 111.242L45.8222 102.797C45.8495 102.769 45.8822 102.746 45.9183 102.731C45.9543 102.716 45.9931 102.708 46.0323 102.708C46.0714 102.708 46.1102 102.716 46.1463 102.731C46.1824 102.746 46.215 102.769 46.2423 102.797C46.2975 102.853 46.3284 102.928 46.3284 103.007C46.3284 103.085 46.2975 103.161 46.2423 103.217L36.9759 111.681L36.9122 111.713Z" fill="#96EAD2"/>
<path d="M36.594 97.9211C36.5311 97.9591 36.4564 97.9727 36.3841 97.9591C36.3118 97.9456 36.2471 97.9059 36.2022 97.8477C36.1573 97.7894 36.1355 97.7167 36.1408 97.6434C36.1462 97.57 36.1784 97.5012 36.2312 97.4501L43.4802 90.704C43.5397 90.6605 43.6131 90.6406 43.6864 90.648C43.7597 90.6554 43.8277 90.6895 43.8774 90.7439C43.927 90.7983 43.9549 90.8691 43.9556 90.9428C43.9563 91.0164 43.9298 91.0878 43.8811 91.1431L36.6385 97.8893L36.594 97.9211Z" fill="#96EAD2"/>
<path d="M51.2828 156.722C49.7745 148.715 55.0569 139.958 55.0569 139.958H21.6124C21.6124 139.958 26.9012 148.715 25.3928 156.722C23.8845 164.728 15.4263 174.083 17.692 189.339C19.9577 204.594 29.1478 209.418 29.1478 209.418H47.4897C47.4897 209.418 56.6989 204.588 58.9454 189.339C61.1921 174.09 52.7912 164.722 51.2828 156.722Z" fill="#1C8DC6"/>
<path d="M41.0045 202.462C49.4181 188.403 51.6965 166.822 35.6584 159.7C32.1974 158.239 28.3309 158.049 24.7437 159.165C22.2934 166.65 15.6491 175.611 17.692 189.339C19.9513 204.613 29.1478 209.418 29.1478 209.418H34.7484C37.345 207.846 39.2225 205.44 41.0045 202.462Z" fill="#3999D5"/>
<path d="M172.867 31.4863H123.429V77.2636H172.867V31.4863Z" fill="white"/>
<path d="M229.967 31.4863H180.529V77.2636H229.967V31.4863Z" fill="white"/>
<path d="M172.867 83.2461H123.429V129.023H172.867V83.2461Z" fill="white"/>
<path d="M229.967 83.2461H180.529V129.023H229.967V83.2461Z" fill="white"/>
<path d="M253.706 39.0771H248.532H238.565H233.391L221.509 76.792H238.565H248.532H265.582L253.706 39.0771Z" fill="#5ACADE"/>
<path d="M232.106 76.792L239.246 39.0771H238.565H233.391L221.509 76.792" fill="#6AD9E5"/>
<path d="M244.732 68.7852H242.358V199.037H244.732V68.7852Z" fill="#5ACADE"/>
<path d="M260.681 197.453H226.416C225.049 197.453 223.94 198.562 223.94 199.929C223.94 201.296 225.049 202.405 226.416 202.405H260.681C262.049 202.405 263.157 201.296 263.157 199.929C263.157 198.562 262.049 197.453 260.681 197.453Z" fill="#5ACADE"/>
<path d="M134.63 218.672C194.215 218.672 242.518 215.586 242.518 211.779C242.518 207.973 194.215 204.887 134.63 204.887C75.045 204.887 26.7421 207.973 26.7421 211.779C26.7421 215.586 75.045 218.672 134.63 218.672Z" fill="#C1E5E4"/>
<path d="M204.949 167.241L225.633 210.334C225.841 210.77 226.168 211.138 226.577 211.395C226.986 211.652 227.46 211.787 227.943 211.785H228.542C228.949 211.788 229.351 211.693 229.715 211.508C230.078 211.324 230.392 211.054 230.629 210.723C230.867 210.392 231.022 210.009 231.08 209.605C231.139 209.202 231.1 208.791 230.966 208.405L215.056 161.31L204.949 167.241Z" fill="#D36737"/>
<path d="M75.6836 167.241L54.9996 210.334C54.7923 210.769 54.4658 211.136 54.0579 211.393C53.6501 211.65 53.1777 211.786 52.6957 211.785H52.1229C51.7153 211.788 51.313 211.693 50.9496 211.508C50.5863 211.324 50.2726 211.054 50.035 210.723C49.7974 210.392 49.6428 210.009 49.5842 209.605C49.5255 209.202 49.5646 208.791 49.6981 208.405L65.6089 161.31L75.6836 167.241Z" fill="#D36737"/>
<path d="M140.319 188.154L49.5454 169.774V131.55C49.5454 125.696 51.8707 120.082 56.0099 115.943C60.1491 111.804 65.7631 109.479 71.6168 109.479H118.248C124.102 109.479 129.716 111.804 133.855 115.943C137.994 120.082 140.319 125.696 140.319 131.55V188.154Z" fill="#4A55A4"/>
<path d="M140.319 192.311L49.5454 173.956V135.707C49.5471 129.854 51.8732 124.242 56.0122 120.104C60.1512 115.966 65.7642 113.642 71.6168 113.642H118.248C124.101 113.642 129.714 115.966 133.853 120.104C137.992 124.242 140.318 129.854 140.319 135.707V192.311Z" fill="#3D4B93"/>
<path d="M140.319 188.154L231.087 169.774V131.55C231.087 125.697 228.763 120.084 224.625 115.945C220.487 111.806 214.875 109.48 209.022 109.479H162.385C156.532 109.48 150.92 111.806 146.782 115.945C142.644 120.084 140.319 125.697 140.319 131.55V188.154Z" fill="#4A55A4"/>
<path d="M140.319 192.311L231.087 173.956V135.707C231.087 129.855 228.763 124.242 224.625 120.104C220.487 115.966 214.874 113.642 209.022 113.642H162.385C156.532 113.642 150.92 115.966 146.782 120.104C142.644 124.242 140.319 129.855 140.319 135.707V192.311Z" fill="#3D4B93"/>
<path d="M140.319 173.319C96.4567 173.319 58.8563 157.148 42.9456 134.128C42.487 133.471 41.8457 132.962 41.1012 132.666C40.3566 132.369 39.5414 132.297 38.7565 132.459C37.9715 132.621 37.2513 133.009 36.6848 133.576C36.1183 134.143 35.7305 134.864 35.5693 135.649C35.0416 138.202 34.7708 140.801 34.7611 143.407C34.7611 178.653 82.0161 207.222 140.319 207.222C198.623 207.222 245.878 178.634 245.878 143.407C245.876 140.8 245.616 138.199 245.101 135.643C244.94 134.858 244.552 134.137 243.986 133.57C243.42 133.003 242.699 132.614 241.914 132.453C241.129 132.291 240.314 132.363 239.57 132.659C238.825 132.956 238.184 133.464 237.725 134.122C221.783 157.122 184.176 173.319 140.319 173.319Z" fill="#4A55A4"/>
<path d="M140.319 197.994C84.5936 197.994 38.9615 171.9 35.0347 138.806C34.8541 140.322 34.7627 141.848 34.7611 143.375C34.7611 178.621 82.0161 207.19 140.319 207.19C198.623 207.19 245.878 178.634 245.878 143.407C245.874 141.88 245.781 140.354 245.598 138.837C241.671 171.894 196.039 197.994 140.319 197.994Z" fill="#3D4B93"/>
<path d="M132.771 145.196C132.771 145.196 129.207 140.2 128.692 137.559C125.427 139.156 116.071 143.535 116.071 143.535L131.066 148.448L132.771 145.196Z" fill="#2BB3C1"/>
<path d="M131.486 145.991C131.486 145.991 129.163 142.548 128.692 140.148C127.368 140.25 126.146 140.371 126.146 140.371L125.631 145.864L129.449 147.079L131.486 145.991Z" fill="#D1D1D1"/>
<path d="M222.489 148.39C223.5 147.834 224.567 147.384 225.671 147.048C226.219 146.869 231.316 141.848 231.316 141.848C231.533 139.468 229.515 129.253 227.975 126.79C227.269 126.332 225.308 129.043 225.805 132.346C226.301 135.649 226.155 140.27 225.347 141.663C224.538 143.057 221.528 143.369 221.528 143.369L222.489 148.39Z" fill="#FFC9A4"/>
<path d="M129.729 152.075C129.729 152.075 167.514 153.889 177.105 150.739C186.257 148.34 186.925 149.663 189.197 149.466C191.469 149.269 219.981 144.19 222.209 142.262C224.118 144.483 224.468 147.99 224.468 147.99C224.468 147.99 206.324 159.598 195.193 160.044C193.366 159.954 187.683 162.5 187.683 162.5C187.683 162.5 163.829 175.668 133.293 171.658C135.966 159.35 129.729 152.075 129.729 152.075Z" fill="#E59730"/>
<path d="M135.903 171.977C137.697 160.674 132.033 154.055 132.033 154.055C132.033 154.055 169.818 155.869 179.409 152.718C188.555 150.319 189.229 151.643 191.501 151.445C193.627 151.286 218.32 146.876 223.641 144.699C223.3 143.814 222.817 142.99 222.209 142.262C219.981 144.171 191.488 149.262 189.197 149.466C186.906 149.67 186.238 148.321 177.105 150.739C167.514 153.921 129.729 152.075 129.729 152.075C129.729 152.075 135.966 159.35 133.293 171.678C134.172 171.792 135.037 171.888 135.903 171.977Z" fill="#EEAE4A"/>
<path d="M184.812 158.166C186.029 159.157 186.847 160.553 187.116 162.099C187.6 164.734 187.116 166.739 189.49 166.44C191.864 166.14 205.006 160.934 207.087 158.904C207.38 158.115 204.313 156.779 201.194 157.969C198.076 159.159 193.557 159.993 191.991 159.502C190.426 159.012 189.516 156.136 189.516 156.136L184.812 158.166Z" fill="#FFC9A4"/>
<path d="M124.682 149.701C124.682 149.701 156.752 119.267 165.217 117.186C173.681 115.105 186.136 143.655 191.113 155.907C189.477 157.23 184.52 159.541 184.52 159.541C184.52 159.541 166.7 138.608 166.553 132.352C157.344 147.028 152.1 164.479 144.526 170.239C136.953 175.999 122.009 171.677 122.009 171.677L124.682 149.701Z" fill="#F7C94B"/>
<path d="M124.682 149.701C124.682 149.701 156.65 123.124 165.115 121.062C173.579 119 186.117 143.674 191.113 155.926C189.477 157.25 184.52 159.56 184.52 159.56C184.52 159.56 166.7 138.628 166.553 132.371C157.344 147.048 152.1 164.498 144.526 170.258C136.953 176.018 122.009 171.696 122.009 171.696L124.682 149.701Z" fill="#EEAE4A"/>
<path d="M128.361 146.265C128.361 146.265 114.538 142.86 87.7885 142.726C71.4067 142.637 69.6757 137.45 69.6757 137.45L57.278 138.048C57.278 138.048 53.5676 142.904 53.5931 145.157C53.6567 150.414 57.838 160.107 83.7535 169.774C105.507 177.889 117.211 176.476 132.033 174.16C129.57 167.541 126.662 150.802 128.361 146.265Z" fill="#EFEFEF"/>
<path d="M128.361 146.265C128.361 146.265 114.538 142.86 87.7885 142.726C71.4067 142.637 69.6757 137.45 69.6757 137.45L57.278 138.048C57.278 138.048 53.5676 142.904 53.5931 145.157C53.6567 150.414 57.838 160.107 83.7535 169.774C105.507 177.889 117.211 176.476 132.033 174.16C129.57 167.541 126.662 150.802 128.361 146.265Z" fill="#EFEFEF"/>
<path d="M89.8378 164.69C63.9223 155.022 59.741 145.329 59.6837 140.073C59.7443 139.313 59.9609 138.574 60.3201 137.902L57.2971 138.049C57.2971 138.049 53.5867 142.905 53.6122 145.158C53.6758 150.415 57.8572 160.107 83.7726 169.775C105.526 177.889 117.23 176.476 132.052 174.16C131.645 173.065 131.225 171.684 130.779 170.131C119.075 171.595 107.906 171.41 89.8378 164.69Z" fill="#E2E2E2"/>
<path d="M47.5152 132.734C47.5152 132.734 24.19 143.636 22.6371 152.954C20.8233 163.856 48.9726 159.955 62.8977 158.09C65.698 157.714 68.0782 154.825 68.2628 153.546C68.8547 149.383 67.3209 145.724 63.4641 144.438C59.6073 143.153 50.3791 146.119 45.4722 147.156C45.4722 147.156 48.0688 144.336 54.3822 137.431C52.6639 136.407 50.5955 135.859 47.5152 132.734Z" fill="white"/>
<path d="M27.1366 151.929C31.8844 144.209 42.7037 137.45 49.1062 138.271C49.5899 138.271 50.831 139.423 51.3019 140.817L54.3568 137.463C52.6639 136.407 50.5955 135.872 47.5152 132.747C47.5152 132.747 24.19 143.649 22.6371 152.986C21.8734 157.581 26.4557 159.547 32.9982 160.152C32.0308 159.802 31.0889 159.439 30.1024 159.07C27.7285 157.867 25.9465 154.901 27.1366 151.929Z" fill="#EFEFEF"/>
<path d="M53.5931 128.827C53.5931 128.827 54.6177 136.413 58.0481 141.485C59.3209 143.306 64.0433 143.166 65.8953 141.969C67.3019 141.092 68.5859 140.033 69.7139 138.819L67.8618 134.555C67.8618 134.555 56.1515 126.663 53.5931 128.827Z" fill="#F7BB92"/>
<path d="M66.7099 114.265C66.7099 114.265 69.5229 117.765 70.0766 120.833C70.6303 123.9 74.0798 125.186 74.2962 125.803C74.4234 126.796 72.8896 127.521 72.2087 127.611C72.1196 130.334 73.6979 134.344 72.9342 135.922C72.1705 137.501 64.5588 140.034 60.4411 136.731C57.0871 134.039 56.6798 130.831 56.6798 130.831C56.6798 130.831 54.5159 132.002 53.4976 130.296C52.4793 128.591 52.2566 124.969 54.5159 124.454C56.7752 123.938 57.0298 125.052 57.0298 125.052C57.0298 125.052 53.1539 120.96 54.605 117.504C56.0561 114.048 64.5715 111.891 66.7099 114.265Z" fill="#FFC9A4"/>
<path d="M56.6034 124.55C56.858 124.868 57.0298 125.053 57.0298 125.053C56.9583 124.836 56.8054 124.656 56.6034 124.55Z" fill="#FFC9A4"/>
<path d="M74.2962 125.803C74.0798 125.167 70.6303 123.894 70.0766 120.833C69.5229 117.772 66.7099 114.265 66.7099 114.265C65.1379 112.527 60.1483 113.227 57.0234 115.079C59.9065 116.989 63.916 118.898 66.6272 120.502C67.7664 122.335 71.6741 129.361 69.8984 134.707C69.6367 135.856 69.2259 136.967 68.6765 138.01C70.8531 137.533 72.5842 136.629 72.9342 135.923C73.6979 134.344 72.1196 130.335 72.2087 127.611C72.8896 127.496 74.4234 126.796 74.2962 125.803Z" fill="#FFD3B6"/>
<path d="M60.1674 117.409C60.1674 117.409 68.4092 118.822 71.2286 115.551C70.7219 115.754 70.1568 115.754 69.6502 115.551C70.248 115.452 70.8052 115.185 71.2562 114.78C71.7072 114.375 72.0332 113.85 72.1959 113.266C71.1574 113.736 69.9974 113.867 68.8801 113.642C70.5667 113.324 71.9986 112.534 73.5834 109.187C70.764 109.467 64.9215 108.474 62.8404 109.448C64.1133 108.245 68.2882 107.997 68.2882 107.997C68.2882 107.997 57.698 106.857 54.7259 110.173C53.9876 109.384 56.807 107.812 56.807 107.812C56.807 107.812 48.9853 109.238 47.897 115.621C46.6241 114.533 43.8875 114.825 43.8875 114.825C43.8875 114.825 46.115 116.264 46.5096 117.206C46.2168 117.206 43.9639 117.301 43.442 118.479C44.1866 118.23 45.9177 119.223 45.9877 119.465C43.3593 122.24 42.9965 131.914 52.753 136.591C56.0815 138.373 56.2088 138.036 56.2088 138.036C55.8772 135.697 55.3078 133.399 54.5095 131.175C54.5095 131.137 54.5095 131.093 54.465 131.067C53.6398 130.432 53.0833 129.51 52.9057 128.483C52.5557 126.001 53.453 125.091 54.4713 124.983C55.0624 124.938 55.6534 125.071 56.1682 125.365C56.6831 125.659 57.0984 126.1 57.3607 126.631L58.4808 128.795L60.091 127.917C60.091 127.917 58.0863 124.938 58.9773 123.825C59.8683 122.711 61.2111 118.447 60.1674 117.409Z" fill="#D36737"/>
<path d="M68.8547 113.642C70.5412 113.324 71.9732 112.534 73.5579 109.187C70.7385 109.467 64.8961 108.474 62.8149 109.448C64.0878 108.245 68.2628 107.997 68.2628 107.997C68.2628 107.997 57.6726 106.857 54.7005 110.173C53.9622 109.384 56.7816 107.812 56.7816 107.812C56.7816 107.812 49.5008 109.136 48.0116 114.966C52.1993 109.791 60.4347 113.877 66.3344 112.7C65.1443 113.292 63.9542 114.482 62.1721 115.074C63.9542 115.074 65.7362 115.672 67.5182 114.482C66.6208 115.386 65.7171 116.964 64.2978 117.664C66.7863 117.664 69.752 117.218 71.2286 115.506C70.7219 115.709 70.1568 115.709 69.6502 115.506C70.248 115.408 70.8052 115.14 71.2562 114.735C71.7072 114.33 72.0332 113.805 72.1959 113.222C71.1547 113.712 69.9848 113.859 68.8547 113.642Z" fill="#EF7C3C"/>
<path d="M66.7608 124.613C66.1551 124.604 65.5542 124.504 64.9788 124.314C64.9604 124.308 64.9434 124.299 64.9289 124.286C64.9143 124.274 64.9024 124.258 64.8941 124.241C64.8857 124.224 64.881 124.205 64.8803 124.186C64.8795 124.167 64.8827 124.147 64.8897 124.13C64.8955 124.111 64.9049 124.094 64.9173 124.079C64.9297 124.064 64.945 124.052 64.9621 124.043C64.9793 124.034 64.998 124.029 65.0173 124.027C65.0365 124.026 65.0559 124.028 65.0743 124.034C65.1061 124.034 67.9255 125.008 68.6765 123.334C68.6847 123.316 68.6963 123.3 68.7107 123.287C68.7251 123.274 68.742 123.264 68.7604 123.257C68.7788 123.251 68.7983 123.248 68.8177 123.249C68.8372 123.25 68.8563 123.255 68.8738 123.264C68.909 123.279 68.9368 123.308 68.9511 123.344C68.9654 123.379 68.9651 123.419 68.9501 123.455C68.7484 123.849 68.43 124.172 68.0383 124.38C67.6465 124.587 67.2005 124.668 66.7608 124.613Z" fill="#CC8640"/>
<path d="M67.1872 131.206C67.1697 131.198 67.1507 131.193 67.1312 131.192C67.1117 131.191 67.0922 131.193 67.0739 131.2C67.0555 131.206 67.0386 131.217 67.0242 131.23C67.0098 131.243 66.9981 131.259 66.9899 131.276C66.9804 131.294 66.9746 131.313 66.973 131.333C66.9714 131.352 66.974 131.372 66.9806 131.391C66.9872 131.409 66.9977 131.426 67.0114 131.441C67.0251 131.455 67.0416 131.466 67.06 131.474C67.8358 131.849 68.6864 132.045 69.5484 132.046C70.6326 132.038 71.696 131.748 72.6351 131.206L72.5778 130.895C71.7754 131.389 70.8628 131.676 69.9219 131.731C68.981 131.785 68.0413 131.605 67.1872 131.206Z" fill="#CC8640"/>
<path d="M63.7059 122.959C63.7059 122.959 66.2517 121.05 67.69 121.05C69.1283 121.05 68.581 120.139 68.0655 119.866C67.55 119.592 63.3114 121.387 63.7059 122.959Z" fill="#D36737"/>
<path d="M73.0933 133.861L73.1379 134.714C74.8753 136.362 78.1529 139.761 78.1084 142.039C78.1119 142.295 78.0562 142.548 77.9458 142.779C77.8354 143.009 77.6733 143.211 77.4719 143.369C74.1052 144.928 70.8467 145.056 67.7982 143.745C59.9192 140.372 55.8269 128.47 55.7887 128.368C55.7627 128.295 55.7088 128.234 55.6386 128.2C55.5685 128.165 55.4875 128.159 55.4133 128.184C55.3383 128.209 55.2762 128.262 55.2405 128.332C55.2047 128.403 55.1982 128.484 55.2223 128.559C55.3942 129.062 59.4419 140.811 67.5627 144.292C68.9926 144.914 70.5347 145.237 72.0941 145.24C74.0556 145.212 75.9869 144.753 77.752 143.897L77.8093 143.859C78.0915 143.649 78.3203 143.375 78.4772 143.06C78.6342 142.745 78.715 142.397 78.713 142.045C78.7575 139.277 74.6907 135.299 73.0933 133.861Z" fill="#D36737"/>
<path d="M103.992 170.392C102.555 170.436 101.147 169.987 100.002 169.119C94.7574 165.046 94.6938 159.038 94.6365 154.214C94.6365 151.433 94.5792 149.034 93.6882 147.347C91.2316 142.727 77.7774 143.929 77.6438 143.942C77.6026 143.951 77.5601 143.951 77.519 143.942C77.4779 143.933 77.4392 143.915 77.4053 143.89C77.3715 143.865 77.3432 143.834 77.3224 143.797C77.3017 143.761 77.2889 143.72 77.2848 143.678C77.2808 143.636 77.2856 143.594 77.2989 143.554C77.3123 143.514 77.3339 143.478 77.3624 143.447C77.3909 143.416 77.4256 143.391 77.4642 143.375C77.5028 143.358 77.5445 143.35 77.5865 143.35C78.1593 143.299 91.588 142.077 94.2101 147.073C95.1711 148.881 95.2029 151.471 95.2284 154.208C95.2856 159.153 95.3493 164.753 100.364 168.655C104.546 171.901 111.317 167.84 118.484 163.563C124.504 159.955 130.728 156.219 135.476 157.116C135.514 157.123 135.551 157.138 135.583 157.159C135.616 157.18 135.644 157.207 135.666 157.239C135.688 157.271 135.703 157.307 135.711 157.345C135.719 157.383 135.719 157.422 135.712 157.46C135.698 157.537 135.654 157.606 135.59 157.651C135.525 157.697 135.446 157.715 135.368 157.702C130.849 156.849 124.714 160.521 118.821 164.066C113.348 167.274 108.161 170.392 103.992 170.392Z" fill="#D36737"/>
<path d="M134.432 154.341L133.561 154.564C133.142 154.672 132.782 154.941 132.562 155.313C132.341 155.685 132.277 156.13 132.383 156.549L132.969 158.828C133.021 159.036 133.115 159.231 133.243 159.403C133.371 159.575 133.533 159.719 133.717 159.829C133.902 159.938 134.106 160.01 134.318 160.04C134.53 160.071 134.747 160.059 134.954 160.005L139.327 158.891L134.432 154.341Z" fill="#D36737"/>
<path d="M55.3305 129.628C56.0089 129.628 56.5588 129.079 56.5588 128.4C56.5588 127.722 56.0089 127.172 55.3305 127.172C54.6521 127.172 54.1022 127.722 54.1022 128.4C54.1022 129.079 54.6521 129.628 55.3305 129.628Z" fill="#BF5025"/>
<path d="M140.943 161.959C137.163 156.867 129.857 153.259 129.787 153.227L130.563 151.623C130.881 151.776 138.334 155.442 142.375 160.902L140.943 161.959Z" fill="#F9C932"/>
<path d="M128.692 140.149C128.692 140.149 124.11 153.361 125.707 159.426C111.865 159.948 92.8099 154.799 92.8099 154.799C92.8099 154.799 95.0374 151.84 95.3556 149.803C95.6739 147.767 112.476 137.45 112.476 137.45L128.692 140.149Z" fill="#D8D8D8"/>
<path d="M128.265 140.079C128.265 140.079 123.295 151.98 124.892 158.045C111.05 158.567 91.9953 153.418 91.9953 153.418C91.9953 153.418 94.2228 150.459 94.541 148.429C94.8592 146.398 111.343 137.45 111.343 137.45L128.265 140.079Z" fill="#E2E2E2"/>
<path d="M90.6842 151.624C90.6842 151.624 97.5131 141.237 97.9586 134.262C108.109 136.109 118.381 137.213 128.692 137.565C128.692 137.565 123.562 146.532 123.9 156.136C108.199 155.939 90.6842 151.624 90.6842 151.624Z" fill="#5ACADE"/>
<path d="M100.091 137.883C111.273 140.015 122.576 139.321 128.094 138.768C128.469 137.998 128.73 137.565 128.73 137.565C118.419 137.213 108.147 136.109 97.9968 134.262C97.5513 141.262 90.7224 151.624 90.7224 151.624C90.7224 151.624 92.1417 151.974 94.541 152.476C96.5458 148.912 99.7852 142.618 100.091 137.883Z" fill="#6DDCE8"/>
</g>
<defs>
<clipPath id="clip0_481_6211">
<rect width="265.016" height="217.997" fill="white" transform="translate(0.572021 0.674805)"/>
</clipPath>
</defs>
</svg>
