<svg width="24" height="24" viewBox="0 0 24 24" fill="none" xmlns="http://www.w3.org/2000/svg">
<g id="company-setup-icon">
<g id="Group 2232">
<path id="Vector" d="M12 10.875H5.25V16.5" stroke="#858585" stroke-width="1.5" stroke-linecap="round" stroke-linejoin="round"/>
<path id="Vector_2" d="M12 10.875H18.75V16.5" stroke="#858585" stroke-width="1.5" stroke-linecap="round" stroke-linejoin="round"/>
<path id="Vector_3" d="M12 7.5L12 16.5" stroke="#858585" stroke-width="1.5" stroke-linecap="round" stroke-linejoin="round"/>
<path id="Vector_4" d="M5.25 21C6.49264 21 7.5 19.9926 7.5 18.75C7.5 17.5074 6.49264 16.5 5.25 16.5C4.00736 16.5 3 17.5074 3 18.75C3 19.9926 4.00736 21 5.25 21Z" stroke="#858585" stroke-width="1.5" stroke-linecap="round" stroke-linejoin="round"/>
<path id="Vector_5" d="M18.75 21C19.9926 21 21 19.9926 21 18.75C21 17.5074 19.9926 16.5 18.75 16.5C17.5074 16.5 16.5 17.5074 16.5 18.75C16.5 19.9926 17.5074 21 18.75 21Z" stroke="#858585" stroke-width="1.5" stroke-linecap="round" stroke-linejoin="round"/>
<path id="Vector_6" d="M12 21C13.2426 21 14.25 19.9926 14.25 18.75C14.25 17.5074 13.2426 16.5 12 16.5C10.7574 16.5 9.75 17.5074 9.75 18.75C9.75 19.9926 10.7574 21 12 21Z" stroke="#858585" stroke-width="1.5" stroke-linecap="round" stroke-linejoin="round"/>
<path id="Vector_7" d="M12 7.5C13.2426 7.5 14.25 6.49264 14.25 5.25C14.25 4.00736 13.2426 3 12 3C10.7574 3 9.75 4.00736 9.75 5.25C9.75 6.49264 10.7574 7.5 12 7.5Z" stroke="#858585" stroke-width="1.5" stroke-linecap="round" stroke-linejoin="round"/>
</g>
</g>
</svg>
