<svg width="24" height="24" viewBox="0 0 24 24" fill="none" xmlns="http://www.w3.org/2000/svg">
<g id="employees-icon">
<g id="Group 2237">
<path id="Vector" d="M12.0002 11.4735C14.2777 11.4735 16.1239 9.57662 16.1239 7.23674C16.1239 4.89685 14.2777 3 12.0002 3C9.72272 3 7.87646 4.89685 7.87646 7.23674C7.87646 9.57662 9.72272 11.4735 12.0002 11.4735Z" stroke="#858585" stroke-width="1.5" stroke-linecap="round" stroke-linejoin="round"/>
<path id="Vector_2" d="M5.03178 21C5.00795 20.7796 5 20.551 5 20.3306C5 16.3551 8.13053 13.1388 12 13.1388C12.2066 13.1388 12.4052 13.1469 12.6039 13.1633C16.1873 13.4816 19 16.5674 19 20.3306C19 20.5592 18.9921 20.7796 18.9682 21" stroke="#858585" stroke-width="1.5" stroke-linecap="round" stroke-linejoin="round"/>
<path id="Vector_3" d="M12.2779 13.1633L12.699 18.2327C12.7546 19.2449 11.2608 19.2449 11.3165 18.2327L11.7376 13.1633C11.7614 12.8286 12.262 12.8286 12.2858 13.1633H12.2779Z" fill="#858585" stroke="#858585" stroke-width="0.5"/>
</g>
</g>
</svg>
