<svg width="24" height="24" viewBox="0 0 24 24" fill="none" xmlns="http://www.w3.org/2000/svg">
<g id="job-application-icon">
<g id="Group 2236">
<path id="Vector" d="M17.2073 10.0023V6.30912L13.8028 3H4V18.32L10.9859 18.2547" stroke="#858585" stroke-width="1.5" stroke-linecap="round" stroke-linejoin="round"/>
<path id="Vector_2" d="M6.50293 14.8148H9.87517" stroke="#858585" stroke-width="1.5" stroke-linecap="round" stroke-linejoin="round"/>
<path id="Vector_3" d="M6.50293 11.424H12.8772" stroke="#858585" stroke-width="1.5" stroke-linecap="round" stroke-linejoin="round"/>
<path id="Vector_4" d="M6.50293 8.03314H14.7685" stroke="#858585" stroke-width="1.5" stroke-linecap="round" stroke-linejoin="round"/>
<g id="Group">
<path id="Vector_5" d="M16.4827 16.2937C17.6206 16.2937 18.5431 15.3572 18.5431 14.202C18.5431 13.0468 17.6206 12.1103 16.4827 12.1103C15.3448 12.1103 14.4224 13.0468 14.4224 14.202C14.4224 15.3572 15.3448 16.2937 16.4827 16.2937Z" stroke="#858585" stroke-width="1.5" stroke-linecap="round" stroke-linejoin="round"/>
<path id="Vector_6" d="M13.0141 21C13.0061 20.8938 12.998 20.7794 12.998 20.665C12.998 18.704 14.5675 17.1108 16.4991 17.1108C16.6037 17.1108 16.7003 17.1108 16.8049 17.1271C18.5997 17.2823 20.0001 18.8103 20.0001 20.665C20.0001 20.7794 20.0001 20.8856 19.984 21" stroke="#858585" stroke-width="1.5" stroke-linecap="round" stroke-linejoin="round"/>
</g>
</g>
</g>
</svg>
