<svg width="24" height="24" viewBox="0 0 24 24" fill="none" xmlns="http://www.w3.org/2000/svg">
<g id="salary-icon">
<g id="Group 2239">
<g id="Group">
<path id="Vector" d="M16.9453 11.102V12.6204" stroke="#858585" stroke-width="1.5" stroke-linecap="round" stroke-linejoin="round"/>
<path id="Vector_2" d="M16.9453 18.4653V19.9837" stroke="#858585" stroke-width="1.5" stroke-linecap="round" stroke-linejoin="round"/>
<path id="Vector_3" d="M19.7733 12.6204H15.3995C14.9509 12.6204 14.5103 12.7592 14.1738 13.0531C13.6932 13.4776 13.3567 14.7347 15.039 15.1674C16.8815 15.6408 18.019 15.9102 18.5878 16.1633C19.0844 16.3837 19.525 16.6939 19.8054 17.0776C20.0858 17.4612 20.1819 18.4653 19.2607 18.4653H14.1978" stroke="#858585" stroke-width="1.5" stroke-linecap="round" stroke-linejoin="round"/>
</g>
<path id="Vector_4" d="M11.0575 10.4735C13.3537 10.4735 15.2151 8.57661 15.2151 6.23673C15.2151 3.89685 13.3537 2 11.0575 2C8.76132 2 6.8999 3.89685 6.8999 6.23673C6.8999 8.57661 8.76132 10.4735 11.0575 10.4735Z" stroke="#858585" stroke-width="1.5" stroke-linecap="round" stroke-linejoin="round"/>
<path id="Vector_5" d="M4.03204 20C4.00801 19.7796 4 19.551 4 19.3224C4 15.3551 7.15625 12.1306 11.0575 12.1306C11.2658 12.1306 11.4661 12.1388 11.6663 12.1551C12.0108 12.1878 12.3553 12.2449 12.6837 12.3265" stroke="#858585" stroke-width="1.5" stroke-linecap="round" stroke-linejoin="round"/>
</g>
</g>
</svg>
