<svg width="24" height="24" viewBox="0 0 24 24" fill="none" xmlns="http://www.w3.org/2000/svg">
<g id="supports-icon">
<g id="Group 2242">
<path id="Vector" d="M3.40039 14.0708H7.73417C8.28691 14.0708 8.72749 14.5194 8.72749 15.0641V19.5981C8.72749 20.1509 8.2789 20.5915 7.73417 20.5915H4.39372C3.84098 20.5915 3.40039 20.1429 3.40039 19.5981V14.0708Z" stroke="#858585" stroke-width="1.5" stroke-linecap="round" stroke-linejoin="round"/>
<path id="Vector_2" d="M20.5993 14.0708V11.996C20.5993 9.62483 19.638 7.46995 18.076 5.91588C16.5219 4.36181 14.375 3.39252 11.9959 3.39252C7.25353 3.40053 3.40039 7.25367 3.40039 11.996V14.0708" stroke="#858585" stroke-width="1.5" stroke-linecap="round" stroke-linejoin="round"/>
<path id="Vector_3" d="M19.6061 20.5995H16.2736C15.7209 20.5995 15.2803 20.1509 15.2803 19.6061V15.0721C15.2803 14.5194 15.7289 14.0788 16.2736 14.0788H20.6074V19.6061C20.6074 20.1589 20.1588 20.5995 19.6141 20.5995H19.6061Z" stroke="#858585" stroke-width="1.5" stroke-linecap="round" stroke-linejoin="round"/>
</g>
</g>
</svg>
